<?xml version="1.0" encoding="utf-8"?>
<!-- Generator: Adobe Illustrator 21.1.0, SVG Export Plug-In . SVG Version: 6.00 Build 0)  -->
<svg version="1.1" id="Слой_1" xmlns="http://www.w3.org/2000/svg" xmlns:xlink="http://www.w3.org/1999/xlink" x="0px" y="0px"
	 viewBox="0 0 56 74" style="enable-background:new 0 0 56 74;" xml:space="preserve">
<style type="text/css">
	.st0{fill:#010101;}
	.st1{enable-background:new    ;}
</style>
<g>
	<rect x="8" y="1.1" class="st0" width="14.4" height="6.5"/>
	<g>
		<path class="st0" d="M49,9.7H7.3c-3.2,0-5.8,2.6-5.8,5.8v51.8c0,3.2,2.6,5.8,5.8,5.8H49c3.2,0,5.8-2.6,5.8-5.8V15.5
			C54.8,12.3,52.2,9.7,49,9.7z M49,41.4c0,1.6-1.3,2.9-2.9,2.9h-2.9c-1.6,0-2.9-1.3-2.9-2.9v-23c0-1.6,1.3-2.9,2.9-2.9h2.9
			c1.6,0,2.9,1.3,2.9,2.9V41.4z"/>
	</g>
</g>
</svg>
